<svg width="469" height="541" viewBox="0 0 469 541" fill="none" xmlns="http://www.w3.org/2000/svg">
<path d="M130.188 364.843L140.069 392.378L152.989 386.177L139.582 360.15C139.582 360.15 130.827 364.388 130.188 364.843Z" fill="#79E1CF"/>
<path d="M194.151 286.733C210.737 282.352 226.786 276.355 242.031 268.841L317.485 279.934C317.485 279.934 331.287 287.416 332.959 287.643C337.681 287.283 342.411 288.276 346.517 290.488C352.08 294.1 363.207 294.1 366.095 294.555C370.265 295.816 374.25 297.566 377.951 299.761C380.839 301.354 393.668 305.194 395.857 306.559C398.046 307.924 403.092 309.404 404.308 315.093C406.008 322.083 407.026 329.206 407.348 336.37C407.105 341.575 405.676 355.599 403.487 361.032C401.298 366.465 391.874 394.739 391.327 398.01C390.78 401.281 389.655 423.355 388.287 427.906C386.919 432.457 380.322 456.351 379.167 460.703C378.012 465.056 369.257 486.731 367.797 490.571C366.338 494.411 364.149 501.437 364.757 504.367C365.636 507.541 365.882 510.838 365.487 514.095C365 517.736 368.162 535.6 367.189 536.851C366.216 538.103 332.351 539.553 320.525 536.168C308.699 532.783 261.518 537.534 242.396 536.624C223.274 535.713 172.749 535.258 165.514 533.779C158.279 532.3 149.311 531.987 153.658 527.464C158.005 522.941 158.492 516.598 158.735 510.397C159.371 504.791 160.583 499.258 162.352 493.87L147.152 396.446L169.466 353.778L194.151 286.733Z" fill="#BED4FC"/>
<path d="M404.065 258.857C407.865 261.36 407.379 260.819 404.065 261.218C400.751 261.616 399.019 261.73 398.623 263.749C398.299 265.394 397.8 267.004 397.134 268.556C396.979 268.447 396.835 268.324 396.708 268.187C390.628 259.824 395.34 261.986 384.183 261.132C381.964 261.132 388.074 259.198 389.868 255.443C390.537 254.049 387.406 248.844 389.169 249.754C394.519 252.399 392.786 251.432 393.455 251.802C395.462 252.968 401.42 248.389 403.7 247.763C404.399 252.371 398.775 255.216 404.065 258.857Z" fill="#FFEAB6"/>
<path d="M449.057 170.676C450.547 171.188 446.017 172.411 444.163 173.72C441.123 175.825 443.981 177.588 443.737 180.547C441.366 179.608 438.691 174.858 435.165 174.858C428.811 176.849 428.416 177.702 427.291 177.702C427.656 175.569 433.006 171.245 429.966 168.941C428.78 168.088 425.832 164.02 427.321 164.333C433.219 165.613 433.188 165.869 434.313 165.13C440.241 161.318 440.393 155.458 441.488 163.48C442.43 170.676 440.515 167.832 449.057 170.676Z" fill="#FFEAB6"/>
<path d="M441.67 76.9782C441.518 77.1773 441.396 77.4333 441.183 77.5187C433.523 81.2166 433.006 80.7614 433.462 83.2077C434.617 89.9492 434.343 88.8967 434.161 90.063C426.044 83.1793 429.267 84.0611 428.081 83.862C425.831 83.5491 421.636 85.91 417.593 86.7065C416.194 86.7065 416.742 86.422 420.238 81.0174C424.099 75.1293 405.311 68.1602 421.606 72.4839C424.646 73.3088 424.099 72.9106 429.631 65.9415C431.395 63.6943 430.27 73.8493 434.374 74.1906C435.803 74.1906 437.779 75.7835 441.032 76.4662C441.272 76.6058 441.488 76.7784 441.67 76.9782Z" fill="#FFEAB6"/>
<path d="M127.21 200.829C142.653 197.586 127.21 202.137 130.645 207.542C133.472 212.207 134.628 211.78 129.125 210.642C122.741 209.305 125.629 208.907 119.002 215.193C118.211 215.961 119.154 212.832 119.397 209.874C119.671 206.347 112.375 205.209 111.311 203.36C111.827 203.36 110.915 203.36 115.597 202.934C121.373 202.478 118.637 199.435 121.16 194.599C123.227 196.277 125.355 201.198 127.21 200.829Z" fill="#FFEAB6"/>
<path d="M158.279 136.883C159.039 138.078 155.239 136.883 149.859 135.006C146.819 133.954 147.517 131.82 140.343 141.207C137.577 144.877 141.62 133.129 137.03 131.536C126.633 127.895 126.632 128.691 138.063 124.823C140.556 123.969 139.37 118.878 141.103 114.497C151.956 123.998 142.805 123.201 158.674 119.788C156.334 125.648 151.47 127.326 154.266 130.369C155.819 132.418 157.163 134.599 158.279 136.883Z" fill="#FFEAB6"/>
<path d="M241.18 303.828C242.609 310.143 244.008 310.883 242.427 310.655C228.656 308.636 215.219 295.892 212.452 285.197C211.935 283.177 211.571 283.376 213.881 282.637C220.66 280.389 224.156 277.972 223.305 279.394C221.603 282.238 222.819 285.908 222.606 287.216C221.815 292.137 225.463 296.29 230.723 298.907C231.422 299.249 231.179 299.192 235.83 299.476C238.87 298.794 239.265 298.509 239.63 299.476C240.311 300.872 240.831 302.33 241.18 303.828Z" fill="#FFC6A6"/>
<path d="M349.526 87.2749C357.856 90.5461 360.197 91.0581 354.573 92.3666C351.046 91.5701 350.621 91.5132 348.493 87.474C348.28 86.962 348.949 87.0473 349.526 87.2749Z" fill="#E6FCFF"/>
<path d="M366.187 86.0236C366.703 86.0236 366.673 86.3649 366.46 86.6209C365.214 88.1854 363.785 90.4895 361.444 89.0957C355.364 85.4262 343.508 83.748 346.761 78.9976C348.098 77.0634 347.004 79.2821 353.935 82.0697C361.444 85.0849 364.15 86.2511 366.187 86.0236Z" fill="#E6FCFF"/>
<path d="M368.68 79.8795C370.534 80.0502 368.254 83.1507 365.305 83.0938C360.411 81.5009 345.667 76.4376 349.74 73.4224C350.227 73.0811 349.983 72.114 350.683 72.1709C351.899 72.1709 350.288 73.3656 358.344 76.3807C366.4 79.3959 367.099 79.6519 368.68 79.8795Z" fill="#E6FCFF"/>
<path d="M353.449 66.0837C369.561 77.4618 375.945 71.6021 371.081 76.8929C370.169 77.8885 366.642 76.2102 365.305 75.7551C358.799 73.5079 347.946 70.2652 353.449 66.0837Z" fill="#E6FCFF"/>
<path d="M396.07 45.8592C397.012 46.1152 396.313 48.1917 395.462 47.765C392.239 46.229 394.945 45.5178 396.07 45.8592Z" fill="#FFD152"/>
<path d="M363.937 38.0655C362.265 39.3455 361.505 36.8708 362.6 36.5863C362.965 36.501 363.603 37.5819 363.937 38.0655Z" fill="#FFD152"/>
<path d="M375.398 14.7971C413.064 14.598 421.181 60.9636 382.026 65.145C376.918 65.7139 375.946 64.3486 374.365 66.2544C371.507 70.0376 373.362 71.7443 371.021 71.1754C366.243 70.0331 361.688 68.1896 357.523 65.7139C353.662 63.5236 360.563 62.8694 358.557 58.8017C356.55 54.7341 356.459 57.8346 353.297 53.1127C338.675 31.2953 359.408 13.9722 375.398 14.7971ZM394.186 51.0362C396.101 55.4737 402.059 44.9774 397.469 43.5836C392.879 42.1898 391.663 45.205 390.933 45.0343C383.88 43.5551 388.258 44.4085 384.184 42.4458C382.299 41.5355 380.81 43.6689 379.29 41.6493C376.888 38.4066 378.621 41.6493 367.342 37.4394C366.552 37.155 366.126 36.131 365.518 35.4483C364.91 34.7656 363.968 34.7656 362.843 34.4811C359.56 33.6562 357.675 39.9426 362.843 40.7675C363.39 40.7675 363.785 40.7675 363.603 41.6493C362.448 46.2859 369.166 50.1829 367.829 52.43C366.012 55.682 364.73 59.173 364.029 62.7841C363.877 63.6374 364.698 63.1823 365.032 63.4383C366.309 64.4623 366.917 59.1146 370.2 53.3403C372.419 49.5002 365.974 45.6601 366.126 42.3604C366.309 38.1221 368.072 40.54 372.206 41.7631C374.517 42.4458 376.28 41.7631 376.918 43.1854C377.331 43.9453 378.023 44.5415 378.864 44.865C379.708 45.1888 380.645 45.2185 381.509 44.949C384.306 44.2663 383.576 46.2859 386.859 46.9401C390.143 47.5944 390.112 47.4521 390.112 48.5899C390.112 48.9882 390.112 49.4148 389.595 49.5286C388.032 50.0276 386.543 50.706 385.157 51.5482C383.424 52.3162 384.184 51.0078 381.296 52.7714C376.949 55.4168 377.678 53.7385 375.854 55.0754C372.814 57.3795 366.157 63.9503 368.285 65.5148C370.413 67.0793 370.656 62.9832 374.973 59.2853C379.29 55.5874 378.621 57.3795 380.08 56.4408C383.12 54.6772 383.546 54.4212 384.002 54.3927C386.616 54.1936 388.623 52.1456 390.599 51.9749C393.274 51.7473 392.575 49.5571 393.152 49.7277C393.73 49.8984 393.973 50.5527 394.186 51.0362Z" fill="#FFD152"/>
<path d="M133.626 41.1085C134.103 42.5864 134.09 44.1654 133.588 45.6362C133.085 47.1069 132.117 48.4004 130.812 49.345C129.507 50.2899 127.926 50.8415 126.278 50.927C124.631 51.0124 122.994 50.6279 121.585 49.8238C120.176 49.02 119.061 47.8346 118.388 46.4249C117.715 45.0152 117.515 43.4474 117.816 41.9291C118.116 40.4106 118.901 39.0135 120.069 37.9222C121.236 36.8308 122.73 36.0972 124.353 35.8177C126.323 35.4851 128.355 35.84 130.064 36.8152C131.772 37.7901 133.04 39.3179 133.626 41.1085Z" fill="#9EDEFF"/>
<path d="M103.499 65.6002C104.837 64.178 106.539 62.7557 107.36 64.6616C107.36 64.6616 79.726 93.5618 79.6652 93.6187C77.4156 92.168 76.534 95.1263 103.499 65.6002Z" fill="#9EDEFF"/>
<path d="M121.829 90.7458C122.377 91.9689 122.133 91.5138 102.981 109.264C102.008 110.202 102.464 110.174 101.4 95.9228C101.4 94.5859 113.561 85.6826 117.482 81.302C121.404 76.9214 120.37 77.661 121.829 90.7458Z" fill="#9EDEFF"/>
<path d="M88.5113 54.0515C90.8521 53.7671 84.2248 58.8019 79.3912 65.6287C78.2968 67.1078 74.1624 72.2849 72.5511 72.484C72.5511 72.484 57.351 72.9107 57.351 72.8253C56.9254 72.2849 65.0423 65.0313 72.5511 56.9814C73.4936 55.6444 73.4936 55.872 88.5113 54.0515Z" fill="#9EDEFF"/>
<path d="M162.414 12.7777C162.115 16.8027 161.172 20.7627 159.617 24.5256C152.29 41.2513 152.929 39.7437 150.922 36.3872C141.62 20.8846 128.73 19.3201 131.162 17.9263C137.327 13.6782 144.257 10.499 151.621 8.53943C163.143 5.69491 161.866 8.53943 162.414 12.7777Z" fill="#FF8E92"/>
<path d="M346.851 221.053C344.51 213.572 350.286 194.713 352.019 190.532C354.37 182.993 355.052 175.085 354.026 167.292C352.81 158.389 346.122 143.313 342.595 136.002C339.069 128.692 323.747 115.152 318.883 111.625C314.019 108.098 290.702 98.9382 282.403 95.5248C274.103 92.1114 259.177 91.3434 259.177 91.3434C256.95 88.7354 253.841 86.9126 250.361 86.1737C246.882 85.4346 243.237 85.8231 240.025 87.2757C230.904 91.0589 229.384 100.161 228.594 100.36C209.746 100.161 207.101 114.384 207.101 114.384C200.109 121.012 202.055 125.193 204.973 129.545C207.891 133.897 217.346 134.011 217.346 134.011C217.346 134.011 274.833 122.32 292.374 147.921C309.915 173.521 303.014 215.279 303.014 215.279L303.5 256.752C306.285 259.226 309.765 260.905 313.535 261.597C317.302 262.287 321.203 261.957 324.781 260.649C313.867 252.855 315.964 248.417 315.964 248.417C332.502 257.975 339.798 248.417 339.798 248.417C336.989 247.903 334.354 246.753 332.13 245.068C329.903 243.38 328.152 241.211 327.03 238.746C331.902 240.128 336.933 240.958 342.017 241.221C355.606 242.444 358.646 235.532 358.646 235.532C358.646 235.532 349.162 228.534 346.851 221.053Z" fill="#FFB564"/>
<path d="M230.419 241.789C229.57 240.903 229.099 239.753 229.099 238.561C229.099 237.369 229.57 236.219 230.419 235.332C211.723 224.552 215.735 215.648 211.723 217.44C207.421 219.217 202.825 220.295 198.134 220.626C196.918 220.967 201.508 228.306 211.631 231.464C220.204 234.138 202.511 241.789 199.806 241.989C195.398 242.301 214.003 252.741 224.552 246.085C224.8 245.897 225.106 245.786 225.423 245.769C225.742 245.753 226.059 245.829 226.327 245.99C226.596 246.151 226.804 246.386 226.923 246.663C227.042 246.94 227.062 247.246 226.984 247.535C226.13 251.511 224.6 255.332 222.454 258.857C227.713 259.738 233.732 256.496 238.11 253.708C239.265 252.997 238.84 251.745 239.296 250.863C239.478 250.465 235.648 247.82 230.419 241.789Z" fill="#FFB564"/>
<path d="M182.538 276.834C188.101 287.643 188.344 287.103 186.976 287.558L125.173 306.645C124.443 306.645 125.446 308.266 111.705 282.836C111.006 281.556 107.328 283.291 150.709 269.694C158.248 267.333 165.422 264.972 173.479 262.498C175.546 261.872 173.813 259.938 182.538 276.834ZM174.239 286.079C172.931 283.974 171.898 285.425 170.287 285.481C169.891 285.481 130.523 296.86 127.726 298.111C126.358 298.652 125.112 300.358 126.784 300.756C127.422 300.899 171.898 288.61 174.239 286.079ZM164.693 274.075C165.666 273.62 166.335 272.027 164.267 271.629C163.902 271.629 161.562 272.283 158.187 273.079C146.179 275.924 144.507 278.029 141.406 277.972C137.819 277.972 137.971 279.337 132.621 280.447C120.46 282.978 122.437 284.059 119.184 284.201C118.788 284.201 118.15 285.083 118.028 285.425C117.755 286.449 121.068 287.046 122.649 286.221C126.03 284.521 129.722 283.431 133.533 283.007C138.549 282.182 138.366 280.674 141.315 280.816C146.939 280.105 149.067 277.972 154.174 276.777C159.282 275.583 160.802 275.924 164.693 274.075ZM156.698 284.457C157.206 284.488 157.71 284.348 158.118 284.062C158.525 283.772 158.809 283.36 158.917 282.893C158.917 279.622 146.757 284.827 141.011 285.737C135.782 286.562 123.896 289.805 122.163 291.569C120.947 292.82 121.616 293.531 123.257 293.617C129.337 291.682 128.517 291.426 130.705 290.772C143.352 287.444 134.657 290.175 148.064 286.562C154.144 285.026 154.539 284.457 156.698 284.457Z" fill="#FFF5DB"/>
<path d="M134.293 353.607C135.205 355.343 131.861 356.31 129.915 356.651C128.76 355.94 131.314 359.894 103.467 307.412C85.6524 274.245 85.6523 275.582 87.4764 275.582C96.9613 275.611 82.2779 256.012 134.293 353.607Z" fill="#79E1CF"/>
<path d="M94.2254 296.262C128.091 360.548 127.453 357.59 125.994 358.073C107.754 363.933 116.874 375.14 114.989 378.981C113.986 377.644 51.1483 257.178 50.7227 256.183C51.2091 256.012 49.5674 255.244 76.1981 270.121C84.7406 274.9 79.7853 268.812 94.2254 296.262Z" fill="#79E1CF"/>
<path d="M187.797 264.745C177.432 244.634 178.131 245.829 177.28 246.113C168.16 249.157 120.431 263.977 112.375 266.452C92.5238 272.596 93.7702 271.401 94.9862 273.62C141.499 358.699 134.507 353.892 139.827 352.555C146.059 352.413 141.894 362.113 142.107 362.625C142.319 363.137 143.839 366.692 144.691 366.408C146.527 365.661 148.404 365.005 150.315 364.445C154.612 363.85 158.797 362.691 162.748 361.003C171.26 356.936 171.382 369.707 160.62 374.628C157.709 376.285 154.583 377.584 151.318 378.497C150.771 378.497 150.649 378.895 150.892 379.35C153.081 383.674 152.534 383.333 153.932 383.333C170.348 383.333 168.403 380.858 179.773 378.611C183.117 377.928 184.514 381.768 183.208 384.3C182.904 384.869 183.421 384.812 184.058 384.641C184.058 384.641 238.778 369.48 241.149 368.769C243.521 368.058 242.396 370.618 187.797 264.745ZM189.013 289.805C188.527 289.976 131.983 307.526 125.174 309.404C122.65 309.148 123.137 310.428 109.062 283.035C107.177 279.394 104.684 281.101 173.966 259.539C176.702 258.686 176.581 259.539 180.381 266.821C190.655 286.562 192.904 288.553 189.013 289.805Z" fill="#79E1CF"/>
<path d="M352.932 430.779C355.972 435.017 356.671 428.361 331.408 461.727C328.67 465.195 325.706 468.502 322.532 471.626C318.245 476.263 314.81 481.44 308.031 486.304C292.162 497.682 280.275 494.838 266.443 479.676C264.348 476.346 262.858 472.712 262.035 468.924C260.059 461.443 256.533 459.366 254.07 450.89C247.625 428.731 254.648 321.663 255.286 321.123C257.901 318.876 253.827 319.985 247.96 312.817C243.187 307.128 245.406 301.041 235.8 286.42C235.607 286.024 235.321 285.676 234.964 285.398C234.604 285.123 234.183 284.926 233.732 284.827C231.878 284.542 233.398 286.79 234.249 288.553C235.526 291.142 232.912 289.492 232.425 289.464C231.179 289.321 230.328 290.658 234.584 292.991C235.1 293.275 236.499 293.304 236.864 293.759C237.221 294.394 237.477 295.074 237.624 295.778C237.624 296.177 237.624 296.29 237.228 296.319C233.884 296.689 232.425 297.343 229.659 295.153C228.078 293.901 225.251 291.056 225.312 289.122C225.464 283.433 224.43 280.589 229.659 277.744C231.696 276.692 232.06 274.9 232.182 272.795C232.395 268.926 236.56 271.031 238.262 265.996C240.694 258.828 251.821 265.143 250.209 261.132C245.284 249.043 229.841 241.221 231.969 237.75C233.976 234.707 241.302 240.367 243.187 242.415C249.085 248.645 259.907 257.121 260.88 263.038C261.488 266.594 264.133 267.817 266.777 276.123C271.55 291.028 276.962 297.371 277.6 313.841C278.603 339.442 306.845 437.691 306.875 437.777C307.666 439.313 309.551 438.658 309.459 437.065C308.365 417.979 296.995 396.929 299.792 396.787C304.403 396.488 309.016 397.332 313.168 399.233C315.965 401.196 333.232 415.561 334.752 416.898C341.38 422.416 348.402 424.294 352.932 430.779Z" fill="#FFC6A6"/>
<path d="M318.519 189.479C331.348 179.324 346.517 187.573 333.719 206.745C331.165 210.528 328.612 213.799 317.455 218.123C302.954 223.812 301.221 189.081 300.947 252.257C300.947 270.178 303.014 275.554 329.919 287.757C330.983 288.24 321.65 294.754 321.589 294.783C305.386 305.649 314.901 300.472 296.965 307.213C293.925 308.294 281.369 313.158 281.157 311.366C278.725 292.337 273.861 287.984 270.517 276.834C267.477 266.992 264.072 264.489 263.768 261.189C263.342 256.353 251.608 246.966 250.179 245.26C249.662 244.691 249.723 244.463 250.483 244.207C284.744 233.768 279.545 225.832 276.08 227.738C269.027 231.578 237.441 242.159 222.727 226.372C206.585 209.021 206.22 178.215 212.908 180.149C215.672 180.721 218.552 180.572 221.233 179.72C223.91 178.867 226.289 177.343 228.108 175.313C229.871 173.663 228.108 179.95 236.62 181.4C238.383 181.713 239.052 179.694 237.988 179.21C235.404 177.987 232.972 177.418 231.574 173.35C230.479 170.193 240.998 172.725 240.694 165.329C240.694 163.366 238.657 163.309 238.201 165.073C237.38 168.116 238.201 167.661 233.337 168.515C232.911 168.515 232.79 168.515 232.942 168.031C235.617 160.152 234.766 157.905 237.502 155.999C238.687 155.351 240.038 155.012 241.408 155.019C242.781 155.026 244.127 155.378 245.305 156.038C246.483 156.698 247.448 157.642 248.104 158.771C248.758 159.9 249.077 161.173 249.024 162.456C249.419 171.757 259.056 185.383 270.304 184.984C286.234 184.387 290.824 169.027 293.712 167.348C295.627 166.211 297.634 166.922 305.72 171.558C308.091 172.895 301.19 186.378 312.439 190.986C313.624 191.47 311.04 192.949 313.928 193.831C314.263 194.172 315.904 191.527 318.519 189.479ZM333.08 198.411C333.501 197.616 333.676 196.727 333.584 195.844C333.493 194.961 333.141 194.12 332.566 193.415C331.988 192.711 331.213 192.171 330.327 191.858C329.44 191.544 328.477 191.469 327.547 191.641C322.623 192.636 317.242 198.496 319.856 203.246C320.738 204.868 319.856 208.224 318.032 208.622C314.415 209.362 314.171 207.769 313.29 209.305C312.408 210.841 314.354 212.15 316.33 212.15C322.592 212.15 324.69 205.437 322.683 201.824C322.428 201.43 322.276 200.983 322.243 200.522C322.212 200.062 322.301 199.6 322.501 199.179C323.778 196.334 330.132 190.958 330.74 198.581C330.892 199.378 332.442 199.662 333.08 198.411ZM237.137 201.625C237.137 200.601 236.468 197.614 233.915 197.557C230.875 197.557 230.419 201.796 232.607 203.872C233.915 205.152 236.407 205.437 237.137 201.625Z" fill="#FFC6A6"/>
<path d="M188.011 413.627C196.888 419.316 195.52 413.883 191.233 440.849C189.156 452.483 186.243 463.972 182.508 475.239C181.657 477.572 182.934 468.554 182.508 458.997C182.083 446.026 167.794 424.351 166.274 424.863C163.234 425.801 169.314 429.129 176.732 448.358C181.809 461.841 179.134 480.388 175.577 485.337C170.956 491.709 166.943 494.411 155.3 492.761C150.077 492.024 145.204 489.855 141.298 486.529C137.391 483.204 134.626 478.868 133.351 474.073C131.709 467.758 129.034 460.476 130.311 452.824C136.391 411.863 132.743 430.836 140.343 440.621H141.711C141.285 437.521 140.981 437.777 136.908 425.261C135.631 421.279 135.601 420.71 134.263 419.913C128.517 416.557 129.581 416.016 128.456 410.327C127.757 406.885 123.228 407.796 123.805 402.96C123.963 401.597 123.747 400.217 123.178 398.954C122.609 397.688 121.706 396.581 120.552 395.735C118.455 393.886 118.941 388.424 122.589 384.869C129.095 378.554 129.824 375.738 136.148 371.357C137.151 370.646 137.394 370.902 146.757 368.854C148.794 368.399 147.548 367.944 151.834 367.233C163.295 365.299 166.183 361.544 166.062 363.933C165.799 365.858 164.969 367.674 163.664 369.181C162.359 370.689 160.631 371.827 158.674 372.467C156.21 373.808 153.602 374.906 150.892 375.738C132.652 379.606 133.625 391.041 136.604 387.77C140.495 383.503 139.917 382.622 141.377 385.125C142.471 387.002 141.924 386.149 138.337 389.164C135.297 391.724 125.143 399.404 130.068 398.722C130.767 398.722 131.162 398.295 137.607 393.232C142.197 389.591 144.052 386.319 158.887 386.177C167.43 386.177 174.087 382.508 179.894 381.455C182.113 381.029 181.535 387.685 165.97 391.61C162.574 392.883 159.05 393.836 155.452 394.455C152.606 394.588 149.861 395.486 147.548 397.043C145.42 398.921 143.839 399.888 144.933 400.94C145.329 401.339 145.693 401.651 146.271 401.083C149.949 397.498 153.749 397.669 161.471 396.218C163.782 395.792 163.295 394.711 166.974 394.369C170.736 393.765 174.461 392.966 178.131 391.98C181.171 391.98 178.83 398.01 162.93 403.756C155.239 406.601 151.621 407.369 148.916 411.152C148.186 412.176 147.578 413.712 148.916 414.281C151.135 415.22 149.797 410.868 157.732 408.165C159.1 407.71 159.434 407.596 159.921 413.286C160.954 425.631 156.09 431.035 155.695 436.042C155.695 436.724 156.546 437.606 157.458 436.554C158.839 433.768 160.067 430.922 161.137 428.02C167.946 408.962 152.017 402.761 173.297 408.877C182.934 411.664 184.272 411.237 188.011 413.627Z" fill="#FFC6A6"/>
<path d="M138.793 355.855C142.927 354.973 139.492 363.336 131.922 367.233C125.842 370.447 125.234 370.76 124.383 371.727C123.532 372.694 124.383 373.917 125.173 373.661C130.159 372.296 138.428 363.962 121.465 382.195C117.452 386.519 118.06 386.831 117.513 383.02C117.549 381.571 117.691 380.128 117.938 378.696C118.698 375.311 114.716 367.318 118.972 364.786C124.479 361.653 130.329 359.078 136.421 357.106C137.154 356.599 137.95 356.179 138.793 355.855Z" fill="#FFC6A6"/>
<path d="M214.307 145.076C214.307 144.678 216.739 133.698 219.718 129.687C222.697 125.677 232.912 115.465 232.912 115.465C232.912 115.465 240.512 119.163 241.211 112.62C241.211 112.62 244.069 115.152 247.291 110.458C250.513 105.765 258.934 106.249 261.974 107.5C265.014 108.752 273.374 110.174 277.995 117.428C282.616 124.681 298.455 149.969 301.282 153.61C304.109 157.251 313.077 167.832 306.419 169.624L294.259 163.139C294.259 163.139 290.034 151.562 279.424 149.912C268.814 148.262 256.198 147.267 251.03 155.601C251.03 155.601 240.846 149.912 233.763 155.971C233.763 155.971 232.152 147.067 223.305 145.674C214.459 144.28 214.307 145.076 214.307 145.076Z" fill="#FFC6A6"/>
<path d="M10.7165 199.634L9.28766 191.584L16.1277 196.989L24.9438 193.12L21.9646 202.308L28.227 210.841L17.7693 209.163L13.6349 217.81L10.9901 207.428L1.90039 203.389L10.7165 199.634Z" fill="#FFEAB6"/>
<path d="M448.571 197.216C434.374 207.797 432.854 228.079 425.71 223.215C417.532 217.525 412.303 211.58 412.06 203.047C412.06 200.686 410.692 198.382 408.26 199.235C406.284 200.042 404.252 200.726 402.18 201.283C395.218 202.99 395.492 197.073 392.269 199.833C390.972 200.672 389.759 201.625 388.652 202.677C387.649 203.53 388.135 203.047 385.825 201.426C383.514 199.804 380.17 202.023 380.626 203.274C380.849 203.579 381.173 203.804 381.548 203.912C381.923 204.021 382.329 204.006 382.693 203.872C384.487 203.132 384.761 204.725 386.585 206.091C389.625 208.395 392.026 200.885 394.641 202.62C398.988 205.465 400.964 204.498 407.591 202.393C411.695 201.113 403.822 209.618 420.268 222.674C429.388 229.985 430.939 227.681 438.083 214.311C440.697 209.419 445.835 201.454 450.486 198.78C452.401 197.671 454.651 197.102 459.332 200.202C470.307 207.484 465.413 209.333 463.984 212.491C463.741 213.06 465.048 214.084 465.625 213.344C469.243 208.707 468.24 210.158 469 207.911C467.693 200.857 455.38 192.152 448.571 197.216Z" fill="#000001"/>
<path d="M444.01 160.949C443.767 159.527 443.281 158.104 442.977 156.71C442.941 156.374 442.797 156.055 442.564 155.796C442.331 155.537 442.019 155.35 441.669 155.26C440.484 154.919 440.332 155.544 436.258 160.067C432.64 164.078 434.799 163.395 425.922 161.347C425.433 161.429 424.969 161.611 424.564 161.882C424.159 162.152 423.822 162.504 423.581 162.911C422.973 163.736 423.034 164.049 425.74 168.145C428.05 171.644 428.78 170.791 427.685 172.298C421.94 180.348 419.355 182.994 429.935 179.381C436.015 177.333 435.772 177.02 436.653 177.845C440.757 181.685 446.412 188.171 446.746 182.738C446.891 180.607 446.538 178.471 445.713 176.48C445.287 174.432 453.647 173.379 454.133 170.449C454.174 170.323 454.187 170.189 454.171 170.057C454.154 169.925 454.111 169.798 454.037 169.683C453.966 169.569 453.872 169.469 453.756 169.39C453.642 169.312 453.513 169.256 453.373 169.226C441.791 165.386 445.378 169.141 444.01 160.949ZM444.162 173.664C441.122 175.769 443.98 177.532 443.737 180.491C441.365 179.552 438.69 174.802 435.164 174.802C428.81 176.793 428.415 177.646 427.29 177.646C427.655 175.513 433.005 171.189 429.965 168.885C428.78 168.032 425.831 163.964 427.32 164.277C433.218 165.557 433.188 165.813 434.312 165.073C440.24 161.262 440.393 155.402 441.487 163.423C442.429 170.649 440.514 167.69 449.057 170.592C450.455 171.132 446.077 172.356 444.162 173.664Z" fill="#000001"/>
<path d="M406.072 114.696C406.315 126.074 413.945 131.763 401.177 130.227C381.599 127.838 377.678 123.429 379.532 136.741C379.775 138.533 379.867 137.964 370.412 141.549C365.67 143.369 367.828 145.616 370.412 144.678C379.046 141.378 382.846 140.894 382.572 137.367C381.964 131.138 381.113 130.028 383.636 130.426C400.691 132.987 403.579 133.584 406.649 133.271C418.627 132.076 403.366 114.241 411.544 110.515C417.289 107.841 419.205 112.108 446.778 122.377C448.298 122.945 449.818 123.514 450.304 122.177C450.79 120.84 449.392 120.755 448.632 120.471C421.272 109.974 424.069 109.462 418.232 107.67C416.947 107.108 415.534 106.854 414.118 106.93C412.701 107.007 411.328 107.412 410.122 108.109C408.917 108.806 407.913 109.773 407.207 110.923C406.5 112.073 406.11 113.37 406.072 114.696Z" fill="#000001"/>
<path d="M417.867 79.8514C415.587 83.3501 410.298 90.9734 415.192 89.8356C417.016 89.4374 420.512 88.8116 421.272 88.5271C425.923 87.048 426.075 86.4506 426.714 87.0764C432.794 92.7655 437.141 98.9949 436.837 88.584C436.655 83.6915 435.499 82.895 436.989 82.3545C438.965 81.5581 442.887 79.51 443.981 79.254C447.72 78.2015 447.903 75.9259 446.292 75.2432C444.68 74.5606 440.212 73.7641 437.445 72.6547C433.037 70.8058 434.922 73.3374 432.095 62.8696C432.029 62.5581 431.859 62.2744 431.608 62.0587C431.36 61.843 431.043 61.7067 430.706 61.6687C430.369 61.6308 430.027 61.6936 429.731 61.8479C429.435 62.0023 429.199 62.2405 429.055 62.5283C428.69 62.9834 427.413 64.6901 423.522 70.0378C422.61 71.3178 413.885 67.0226 412.456 68.6155C408.869 72.5125 419.053 78.0309 417.867 79.8514ZM421.515 72.6263C424.555 73.4512 424.008 73.053 429.541 66.0839C431.304 63.8367 430.179 73.9916 434.283 74.333C435.682 74.333 437.688 75.9259 440.941 76.6086C441.202 76.6973 441.448 76.8219 441.671 76.9784C441.519 77.1775 441.397 77.4335 441.184 77.5188C433.523 81.2167 433.007 80.7616 433.463 83.2079C434.618 89.9494 434.344 88.8969 434.162 90.0632C426.045 83.1794 429.267 84.0612 428.082 83.8621C425.832 83.5492 421.637 85.9102 417.594 86.7066C416.195 86.7066 416.743 86.4222 420.239 81.0176C424.008 75.1863 405.221 68.2742 421.515 72.6263Z" fill="#000001"/>
<path d="M346 86.3655C345.863 87.4762 345.977 88.6013 346.335 89.6682C346.689 90.7354 347.282 91.721 348.067 92.562C348.855 93.403 349.82 94.0807 350.905 94.5518C351.989 95.0228 353.165 95.2769 354.36 95.2972C358.799 95.667 360.592 92.1114 362.264 92.4527C366.004 93.1354 368.983 89.2669 369.104 86.5077C369.104 85.057 370.26 84.0899 370.868 82.696C371.476 81.3022 370.685 80.4204 371.476 80.1929C372.638 79.4443 373.576 78.4283 374.199 77.2429C374.822 76.0574 375.108 74.7421 375.032 73.4229C375.032 73.0531 376.066 71.7447 375.032 70.5784C374.82 70.3224 375.853 68.7864 376.096 68.5588C376.34 68.3312 405.281 70.4931 410.358 46.6276C417.775 11.7538 357.917 -2.35498 346.76 31.1534C340.68 49.1876 356.488 58.7452 355.546 60.5941C353.083 65.3445 351.503 63.4387 350.591 65.5152C348.159 70.7775 350.591 70.1233 349.283 70.7775C344.906 72.8825 347.338 75.471 345.818 76.4666C344.632 77.282 343.827 78.4942 343.573 79.8508C343.317 81.2072 343.631 82.6036 344.45 83.7485C345.635 85.057 346.243 85.3414 346 86.3655ZM354.573 92.3674C351.047 91.5709 350.621 91.514 348.493 87.4748C348.219 86.9628 348.888 87.0481 349.466 87.2757C357.856 90.5185 360.197 91.0305 354.573 92.3674ZM353.175 53.1131C338.552 31.4094 359.255 13.9725 375.276 14.7974C412.942 14.5983 421.058 60.9639 381.903 65.1454C376.796 65.7143 375.823 64.3489 374.242 66.2547C371.384 70.0379 373.239 71.7447 370.898 71.1758C366.118 70.0334 361.563 68.19 357.4 65.7143C353.539 63.524 360.44 62.8698 358.434 58.8021C356.427 54.7344 356.458 57.835 353.175 53.1131ZM353.327 66.0841C369.439 77.4621 375.823 71.6024 370.959 76.8932C370.047 77.8888 366.52 76.2105 365.183 75.7554C358.799 73.5083 347.946 70.2655 353.448 66.0841H353.327ZM349.618 73.4229C350.104 73.0816 349.861 72.1144 350.56 72.1713C351.776 72.1713 350.165 73.366 358.221 76.3812C366.277 79.3964 366.976 79.7377 368.557 79.88C370.138 80.0222 368.375 83.1512 365.335 83.0943C360.41 81.5013 345.696 76.4381 349.739 73.4229H349.618ZM346.578 79.112C347.915 77.1777 346.821 79.3964 353.752 82.184C361.261 85.2277 363.967 86.3655 365.912 86.1379C366.429 86.1379 366.399 86.4792 366.186 86.7353C364.94 88.2997 363.511 90.6038 361.17 89.21C355.242 85.3414 343.507 83.7485 346.76 78.9982L346.578 79.112Z" fill="#000001"/>
<path d="M406.102 257.036C403.73 255.614 404.642 255.443 405.159 253.338C407.257 244.805 407.166 245.402 407.044 244.805C407.029 244.565 406.943 244.333 406.796 244.134C406.649 243.935 406.446 243.781 406.211 243.683C405.975 243.586 405.717 243.551 405.461 243.584C405.205 243.617 404.964 243.714 404.764 243.866C401.724 246.113 398.258 247.45 395.158 249.555C393.729 250.465 388.925 245.914 387.831 246.312C386.22 246.938 385.034 247.678 385.551 249.527C387.709 256.837 387.041 256.069 385.916 256.752C382.602 258.743 379.836 259.596 380.049 262.128C380.049 264.176 386.676 264.034 389.169 264.062C391.661 264.09 391.145 265.086 391.996 266.395C395.796 272.254 398.076 275.639 399.961 268.983C401.602 263.465 399.566 264.062 409.658 263.749C413.975 263.436 410.722 259.795 406.102 257.036ZM403.943 261.161C400.386 261.587 398.897 261.673 398.502 263.692C398.177 265.337 397.678 266.947 397.012 268.499C396.855 268.39 396.713 268.267 396.586 268.13C390.506 259.767 395.218 261.929 384.061 261.075C381.842 261.075 387.953 259.141 389.746 255.386C390.415 253.992 387.284 248.787 389.047 249.697C394.398 252.343 392.665 251.376 393.334 251.745C395.34 252.912 401.298 248.332 403.578 247.706C404.399 252.4 398.623 255.244 404.065 258.828C407.895 261.303 407.378 260.762 403.943 261.161Z" fill="#000001"/>
<path d="M372.205 295.522C363.572 291.256 356.61 294.442 345.97 288.809C342.915 286.806 339.198 285.88 335.482 286.192C332.898 286.818 310.462 277.659 305.629 267.703C304.605 265.107 304.071 262.363 304.048 259.596C303.835 257.434 315.205 266.708 326.21 261.644C326.496 261.552 326.747 261.384 326.932 261.161C327.119 260.938 327.233 260.67 327.261 260.39C327.289 260.108 327.233 259.824 327.094 259.573C326.957 259.321 326.744 259.113 326.483 258.97C322.498 257.406 319.139 254.708 316.877 251.262C316.512 250.693 316.086 249.555 317.485 250.437C329.858 258.316 346.091 249.896 341.136 247.592C336.731 246.547 332.819 244.167 330.01 240.822C329.402 240.111 330.01 240.225 330.374 240.424C339.495 244.236 352.323 243.695 359.559 237.181C363.328 233.768 351.229 232.317 348.584 219.005C345.939 205.693 354.664 196.96 356.184 174.232C356.975 162.399 347.551 140.468 341.592 132.276C325.389 110.032 302.072 99.1655 272.979 91.4284C266.093 89.9452 258.914 90.1311 252.124 91.9689C250.908 92.424 251.182 94.3014 252.641 94.1023C263.142 91.9331 274.119 93.1982 283.74 97.6863C295.597 102.92 319.035 107.87 336.819 131.28C375.853 182.481 327.699 208.082 351.807 231.464C356.883 236.385 357.613 235.589 355.211 236.925C350.905 239.18 346.01 240.256 341.083 240.035C336.153 239.815 331.39 238.303 327.334 235.674C325.45 234.536 323.504 235.674 324.507 237.807C328.733 247.365 339.008 248.616 336.363 249.47C322.379 253.879 316.725 245.857 314.749 244.833C310.553 242.728 309.793 251.262 321.346 259.482C323.747 261.189 303.561 259.738 303.744 253.566C305.416 201.568 300.065 224.381 316.208 222.276C329.614 220.484 345.088 202.706 341.379 190.162C338.887 181.827 330.648 182.794 328.581 181.4C308.547 167.946 297.907 163.793 292.1 155.259C285.23 145.19 259.603 141.719 250.574 153.581C250.239 154.036 249.966 154.15 249.51 153.581C248.676 152.644 247.643 151.877 246.48 151.327C245.314 150.777 244.043 150.456 242.741 150.384C241.438 150.313 240.136 150.491 238.91 150.908C237.687 151.326 236.564 151.974 235.617 152.813C235.222 153.211 235.039 153.211 234.887 152.642C233.306 146.555 224.46 143.682 217.194 143.312C216.069 143.312 215.857 143.682 218.775 136.599C219.322 135.291 222.484 135.006 227.166 138.135C231.391 140.582 228.442 131.422 221.724 131.565C218.684 131.565 230.601 119.362 232.455 117.342C233.428 116.318 233.702 118.082 236.103 118.281C237.106 118.281 237.745 116.801 236.529 115.92C220.933 104.542 237.471 81.1597 252.185 88.6977C255.225 90.319 256.715 87.3039 253.766 85.8532C243.369 81.1028 231.604 87.5883 228.321 98.2268C227.895 99.5353 227.804 98.0277 220.721 99.5637C217.549 100.265 214.63 101.739 212.267 103.838C209.901 105.936 208.17 108.584 207.253 111.511C206.843 112.854 206.042 114.064 204.943 115.009C197.951 122.064 201.295 131.053 209.26 133.3C209.837 133.47 212.117 133.726 212.3 132.731C212.786 131.081 211.357 131.053 210.233 130.74C199.592 127.753 205.825 114.355 207.01 119.106C208.196 123.856 215.066 129.829 216.556 127.383C218.045 124.937 205.733 121.979 210.293 111.312C213.881 102.778 227.469 99.9335 227.439 103.262C227.257 113.786 232.242 114.64 231.026 115.834C224.946 121.779 221.906 123.884 218.167 131.28C217.898 131.918 217.389 132.444 216.738 132.759C212.148 134.75 210.445 141.293 212.209 140.326C215.978 137.965 214.762 138.107 213.82 142.516C213.364 144.592 210.324 142.687 202.663 146.555C189.013 153.61 195.64 170.364 207.253 177.788C211.661 180.632 198.559 184.586 211.57 213.799C211.631 213.894 211.666 214 211.674 214.11C211.682 214.22 211.661 214.33 211.613 214.431C211.565 214.531 211.492 214.619 211.4 214.688C211.309 214.756 211.2 214.803 211.084 214.824C206.303 216.837 201.128 217.903 195.884 217.952C194.06 217.782 194.12 219.659 194.668 221.025C199.197 232.403 211.753 233.455 209.381 234.764C199.805 240.111 200.018 239.116 197.464 239.685C196.993 239.727 196.56 239.943 196.259 240.284C195.957 240.626 195.813 241.064 195.853 241.505C195.64 243.809 197.556 245.118 200.231 246.91C211.661 254.533 222.909 249.754 223.487 250.266C222.588 253.134 221.136 255.823 219.201 258.202C215.005 263.18 226.953 263.891 236.894 258.032C237.073 257.989 237.261 257.989 237.441 258.032C237.101 260.099 236.612 262.142 235.982 264.147C234.522 268.67 230.844 266.992 229.446 271.685C228.199 276.038 204.608 282.125 201.538 283.945C200.535 284.514 201.264 284.941 192.084 267.39C179.073 242.614 179.924 242.643 176.58 243.695C168.797 246.028 171.503 247.251 166.639 238.006C164.146 233.256 107.267 247.137 89.8176 266.565C86.1391 270.832 88.3583 271.885 89.6048 270.832C90.304 270.263 95.168 261.274 122.528 250.209C135.507 244.947 149.208 241.403 163.234 239.685C164.815 239.514 164.177 239.087 167.308 245.573C168.098 247.223 92.0976 269.154 90.2128 271.401C88.3279 273.648 84.1327 272.937 85.4095 272.027C85.692 271.847 85.8901 271.574 85.9636 271.261C86.037 270.948 85.9803 270.623 85.8047 270.348C79.7247 257.178 72.7934 256.126 73.6446 253.281C73.6446 252.741 70.9694 246.853 71.4558 245.999C71.9422 245.146 86.2911 257.093 85.8047 264.972C85.8047 266.964 89.2096 267.817 88.6623 264.176C87.1119 253.509 71.9422 239.002 67.9294 243.61C67.2302 244.378 70.179 249.982 70.2398 251.66C68.2942 251.12 57.6237 243.126 54.2492 247.08C53.4892 247.934 53.854 248.047 58.5965 256.24C59.7821 258.316 56.3773 255.984 53.0028 254.106C42.8795 248.417 46.9228 253.907 52.3036 264.574C112.223 380.033 116.995 386.888 116.387 390.074C116.079 391.776 116.244 393.523 116.867 395.147C117.49 396.771 118.55 398.219 119.944 399.347C120.416 399.802 120.755 400.362 120.931 400.976C121.106 401.587 121.112 402.232 120.947 402.846C120.613 409.872 125.994 408.734 125.933 412.66C125.966 415.326 127.048 417.889 128.973 419.856C133.594 423.014 131.618 416.841 127.514 452.113C126.359 461.984 129.642 470.034 131.436 476.149C135.236 488.893 149.676 495.89 159.708 496.061C160.741 496.061 161.167 495.72 159.708 499.958C155.057 513.583 160.954 516.399 153.962 524.762C152.726 526.443 152.01 528.413 151.895 530.451C151.934 530.724 152.072 530.975 152.285 531.162C152.499 531.35 152.775 531.463 153.067 531.485C153.36 531.504 153.651 531.43 153.891 531.271C154.132 531.115 154.307 530.885 154.388 530.622C155.847 525.53 160.468 523.311 160.65 516.2C160.65 514.949 160.833 507.098 161.137 505.903C163.842 494.952 163.265 496.089 164.815 495.862C174.695 494.383 176.793 489.206 182.356 482.151C186.247 477.202 194.516 444.205 197.1 420.966C197.1 420.055 197.1 419.117 197.981 418.491C198.863 417.865 203.24 392.464 203.149 390.046C203.149 389.107 201.386 388.737 201.021 389.591C200.018 391.838 198.498 405.776 196.583 415.021C196.37 416.158 195.884 415.447 191.324 412.432C185.244 408.393 184.362 409.36 176.793 407.34C164.633 404.012 167.673 405.691 174.452 401.651C183.572 396.133 182.964 390.984 181.93 389.761C180.897 388.538 177.614 389.249 181.93 388.083C222.149 377.189 237.562 373.092 243.065 371.016C246.865 369.651 246.105 369.252 245.193 368.342C245.193 368.342 239.417 357.362 202.632 287.302C202.085 286.221 201.751 286.619 209.047 284.457C209.533 284.457 209.685 284.457 209.777 284.941C211.59 292.379 215.841 299.102 221.937 304.17C238.262 316.999 244.25 312.533 245.497 314.495C255.863 331.022 250.574 292.28 248.537 411.607C248.537 456.977 252.823 454.275 258.599 467.559C259.055 468.554 261.639 478.937 263.433 480.786C281.217 500.498 295.445 500.157 311.07 488.238C324.173 478.254 346.152 445.969 347.855 447.192C349.557 448.415 352.354 448.529 355.029 450.236C358.647 452.54 364.301 454.787 368.466 453.649C371.901 452.71 370.989 454.929 388.834 405.861C389.777 403.244 388.013 427.195 382.055 449.013C373.847 478.994 360.775 496.118 363.815 507.553C365.031 511.99 362.933 513.583 363.815 520.865C366.855 541.915 365.365 540.578 367.797 540.777C370.229 540.976 367.524 524.421 367.311 523.454C365.456 514.607 367.858 512.076 366.612 507.183C363.389 494.696 381.112 474.613 388.986 430.751C392.452 411.55 389.807 404.069 396.829 385.495C405.585 362.511 411.239 346.326 407.135 322.09C404.095 304.369 398.228 308.38 372.205 295.522ZM87.4767 275.611C96.9616 275.611 82.2175 255.984 134.202 353.636C135.114 355.371 131.77 356.338 129.824 356.68C128.669 355.968 131.223 359.922 103.376 307.441C85.6527 274.245 85.6527 275.582 87.4767 275.582V275.611ZM57.4413 249.185C61.4845 248.73 78.7215 259.738 82.8863 270.718C75.8035 267.421 69.004 263.619 62.5485 259.34C61.9709 257.036 57.9581 250.835 57.4413 249.157V249.185ZM114.989 379.009C113.986 377.644 51.1484 257.207 50.7228 256.211C51.2092 256.041 49.5676 255.273 76.1982 270.149C84.7407 274.928 79.7855 268.869 94.2256 296.29C128.091 360.577 127.453 357.618 125.994 358.102C107.784 363.933 116.843 375.112 114.989 378.981V379.009ZM117.512 383.105C117.548 381.657 117.691 380.211 117.938 378.781C118.698 375.397 114.715 367.403 118.971 364.872C124.479 361.738 130.329 359.164 136.421 357.192C137.151 356.665 137.947 356.224 138.792 355.883C142.927 355.03 139.492 363.364 131.922 367.261C125.842 370.475 125.234 370.788 124.383 371.756C123.531 372.723 124.383 373.946 125.173 373.69C130.159 372.324 138.428 363.99 121.464 382.223C117.451 386.575 118.059 386.86 117.512 383.077V383.105ZM140.799 366.038C141.316 367.233 141.133 367.034 136.391 367.915C136.391 367.915 136.391 367.915 136.391 367.688C139.036 366.18 139.431 364.474 139.948 364.587C140.464 364.701 140.373 365.156 140.799 366.123V366.038ZM165.849 391.468C162.452 392.741 158.929 393.694 155.33 394.313C152.484 394.445 149.74 395.344 147.426 396.901C145.298 398.778 143.717 399.746 144.812 400.798C145.207 401.196 145.572 401.509 146.149 400.94C149.828 397.356 153.628 397.527 161.349 396.076C163.66 395.649 163.173 394.569 166.852 394.227C170.615 393.623 174.339 392.824 178.009 391.838C181.049 391.838 178.708 397.868 162.809 403.614C155.087 406.459 151.5 407.227 148.794 411.01C148.064 412.034 147.456 413.57 148.794 414.139C151.013 415.078 149.676 410.725 157.61 408.023C158.978 407.568 159.313 407.454 159.799 413.143C160.833 425.488 155.969 430.893 155.573 435.899C155.573 436.582 156.425 437.464 157.337 436.411C158.249 435.359 160.711 428.617 161.015 427.878C167.825 408.82 151.895 402.619 173.175 408.734C182.934 411.579 184.149 411.095 187.888 413.485C196.765 419.174 195.397 413.741 191.111 440.707C189.033 452.341 186.12 463.83 182.386 475.097C181.535 477.429 182.812 468.412 182.386 458.855C181.961 445.884 167.673 424.208 166.153 424.72C163.113 425.659 169.193 428.987 176.61 448.216C181.687 461.699 179.012 480.245 175.455 485.195C170.834 491.567 166.821 494.269 155.178 492.619C149.955 491.882 145.083 489.715 141.176 486.387C137.27 483.061 134.504 478.726 133.229 473.931C131.588 467.616 128.912 460.334 130.189 452.682C136.269 411.721 132.621 430.694 140.221 440.479H141.589C141.164 437.379 140.86 437.635 136.786 425.119C135.509 421.136 135.479 420.567 134.141 419.771C128.396 416.414 129.46 415.874 128.335 410.185C127.635 406.743 123.106 407.653 123.683 402.818C123.842 401.455 123.626 400.075 123.057 398.812C122.487 397.548 121.584 396.439 120.431 395.593C118.333 393.744 118.819 388.282 122.467 384.727C128.973 378.412 129.703 375.596 136.026 371.215C137.029 370.504 137.272 370.76 146.636 368.712C148.672 368.257 147.426 367.802 151.713 367.091C163.173 365.156 166.061 361.401 165.94 363.791C165.677 365.716 164.847 367.534 163.542 369.039C162.238 370.547 160.51 371.684 158.553 372.324C156.088 373.668 153.48 374.764 150.77 375.596C132.53 379.464 133.503 390.899 136.482 387.628C140.373 383.361 139.796 382.479 141.255 384.983C142.349 386.86 141.802 386.007 138.215 389.022C135.175 391.582 125.021 399.262 129.946 398.579C130.645 398.579 131.04 398.153 137.485 393.089C142.076 389.448 143.93 386.177 158.765 386.035C167.308 386.035 173.966 382.366 179.772 381.313C181.991 380.972 181.414 387.628 165.849 391.553V391.468ZM144.872 385.153C144.477 384.812 144.66 385.352 142.927 382.053C142.532 381.256 143.2 381.029 147.456 379.806C148.004 379.635 148.49 380.574 149.737 383.162C150.01 383.845 149.493 384.015 144.872 385.239V385.153ZM240.998 368.769C238.566 369.48 183.997 384.613 183.906 384.641C183.268 384.812 182.751 384.869 183.055 384.3C184.362 381.683 183.055 377.843 179.62 378.611C168.25 380.858 170.196 383.304 153.78 383.333C152.533 383.333 153.081 383.674 150.74 379.35C150.497 378.895 150.74 378.611 151.165 378.497C154.43 377.584 157.556 376.285 160.468 374.628C171.23 369.707 171.108 356.936 162.596 361.003C158.645 362.691 154.459 363.85 150.162 364.445C148.251 365.005 146.374 365.661 144.538 366.408C143.687 366.692 142.349 363.563 141.954 362.625C141.559 361.686 145.906 352.413 139.674 352.555C134.354 353.892 141.346 358.699 94.8336 273.62C93.6176 271.401 92.3712 272.596 112.223 266.452C120.279 263.977 168.129 249.157 177.127 246.113C177.978 245.829 177.127 244.634 187.645 264.745C242.396 370.618 243.247 368.2 240.998 368.854V368.769ZM308.577 174.403C308.577 173.265 307.969 173.265 322.866 182.311C324.811 183.477 320.282 182.993 315.661 188C314.779 188.967 314.749 188.91 313.472 188.341C307.939 186.037 307.787 180.405 308.577 174.488V174.403ZM254.921 153.61C261.001 148.945 280.761 149.058 288.361 157.108C294.989 164.163 278.572 189.962 262.369 179.352C254.587 174.261 247.351 159.299 254.921 153.61ZM215.644 166.524C215.644 165.101 213.941 147.408 216.404 147.522C221.027 147.368 225.597 148.497 229.537 150.765C236.073 154.776 228.655 182.481 212.725 176.991C211.023 176.366 215.522 172.639 215.644 166.524ZM207.253 148.916C208.834 148.461 210.293 148.12 212.057 147.721C212.604 147.721 212.877 147.721 212.817 148.29C211.236 161.119 215.674 164.76 210.415 174.602C209.807 175.797 209.685 175.854 208.652 175.086C195.914 165.357 192.357 153.268 207.253 148.916ZM212.877 180.206C215.641 180.778 218.522 180.629 221.199 179.777C223.88 178.924 226.259 177.4 228.077 175.37C229.81 173.72 228.078 180.007 236.59 181.457C238.353 181.77 239.022 179.751 237.958 179.267C235.374 178.044 232.942 177.475 231.543 173.407C230.449 170.25 240.967 172.782 240.663 165.386C240.663 163.423 238.626 163.366 238.17 165.13C237.35 168.173 238.17 167.718 233.306 168.572C232.881 168.572 232.759 168.572 232.911 168.088C235.586 160.209 234.735 157.962 237.471 156.056C238.657 155.408 240.007 155.069 241.378 155.076C242.751 155.083 244.096 155.435 245.274 156.095C246.452 156.755 247.417 157.699 248.073 158.828C248.727 159.957 249.046 161.23 248.993 162.513C249.388 171.814 259.025 185.44 270.273 185.041C286.203 184.444 290.793 169.084 293.681 167.405C295.597 166.268 297.603 166.979 305.689 171.615C308.061 172.952 301.16 186.435 312.408 191.043C313.593 191.527 311.009 193.006 313.897 193.888C314.353 193.888 315.995 191.356 318.61 189.308C331.438 179.153 346.608 187.402 333.81 206.574C331.256 210.358 328.702 213.629 317.546 217.952C303.045 223.642 301.312 188.91 301.038 252.087C301.038 270.007 303.105 275.383 330.01 287.586C331.074 288.07 321.741 294.584 321.68 294.612C305.477 305.478 314.992 300.301 297.056 307.043C294.016 308.124 281.46 312.988 281.248 311.196C278.816 292.166 273.952 287.814 270.607 276.663C267.567 266.821 264.163 264.318 263.859 261.018C263.433 256.183 251.699 246.796 250.27 245.089C249.753 244.52 249.814 244.293 250.574 244.037C284.835 233.597 279.636 225.661 276.171 227.567C269.118 231.407 237.532 241.989 222.818 226.202C206.493 209.191 206.129 178.385 212.817 180.32L212.877 180.206ZM222.453 258.857C224.594 255.313 226.114 251.473 226.953 247.479C227.031 247.189 227.008 246.884 226.892 246.606C226.773 246.329 226.565 246.094 226.297 245.933C226.028 245.772 225.711 245.696 225.392 245.713C225.073 245.729 224.769 245.841 224.521 246.028C213.972 252.684 195.367 242.245 199.775 241.932C202.42 241.733 220.173 234.081 211.601 231.407C201.477 228.25 196.887 220.911 198.103 220.569C202.853 220.275 207.512 219.217 211.874 217.44C215.887 215.648 211.874 224.552 230.57 235.333C229.722 236.219 229.25 237.369 229.25 238.561C229.25 239.753 229.722 240.903 230.57 241.79C235.799 247.763 239.69 250.323 239.417 250.892C238.961 251.802 239.417 253.054 238.231 253.737C233.702 256.609 227.682 259.852 222.453 258.857ZM242.457 310.542C228.686 308.522 215.249 295.778 212.482 285.083C211.965 283.063 211.601 283.263 213.911 282.523C220.69 280.276 224.186 277.858 223.335 279.28C221.633 282.125 222.849 285.794 222.636 287.103C221.845 292.024 225.493 296.177 230.753 298.794C231.452 299.135 231.209 299.078 235.86 299.363C238.9 298.68 239.295 298.395 239.66 299.363C240.326 300.782 240.846 302.259 241.21 303.772C242.426 310.058 244.007 310.883 242.426 310.655L242.457 310.542ZM331.438 461.614C328.7 465.082 325.736 468.388 322.562 471.513C318.275 476.149 314.84 481.326 308.061 486.19C292.192 497.568 280.305 494.724 266.473 479.563C264.38 476.23 262.891 472.598 262.065 468.81C260.089 461.329 256.563 459.253 254.1 450.776C247.655 428.617 254.678 321.55 255.316 321.009C257.931 318.762 253.857 319.872 247.99 312.703C243.217 307.014 245.436 300.927 235.83 286.306C235.64 285.91 235.353 285.562 234.994 285.285C234.636 285.01 234.216 284.813 233.762 284.713C231.908 284.429 233.428 286.676 234.279 288.44C235.556 291.028 232.942 289.378 232.455 289.35C231.209 289.208 230.358 290.545 234.614 292.877C235.13 293.162 236.529 293.19 236.894 293.645C237.251 294.28 237.507 294.961 237.654 295.665C237.654 296.063 237.654 296.177 237.258 296.205C233.914 296.575 232.455 297.229 229.689 295.039C228.108 293.787 225.281 290.943 225.341 289.009C225.493 283.319 224.46 280.475 229.689 277.63C231.726 276.578 232.09 274.786 232.212 272.681C232.425 268.812 236.59 270.917 238.292 265.883C240.724 258.714 251.851 265.029 250.239 261.018C245.314 248.929 229.871 241.107 231.999 237.637C234.006 234.593 241.302 240.254 243.217 242.302C249.114 248.531 259.937 257.008 260.91 262.924C261.518 266.452 264.163 267.703 266.807 276.009C271.58 290.914 276.992 297.258 277.63 313.727C278.633 339.328 306.875 437.578 306.905 437.663C307.696 439.199 309.581 438.573 309.489 436.952C308.395 417.865 297.025 396.816 299.822 396.673C304.433 396.375 309.049 397.219 313.198 399.12C315.995 401.082 333.262 415.447 334.783 416.784C341.075 422.189 348.098 424.066 352.627 430.552C355.85 435.018 356.701 428.361 331.408 461.728L331.438 461.614ZM240.238 259.255C241.636 252.542 241.484 252.798 242.335 253.566C243.86 255.13 245.102 256.918 246.014 258.857C246.652 259.966 244.706 259.568 244.676 259.454C240.329 260.194 239.812 260.535 240.055 259.369L240.238 259.255ZM370.716 445.912C370.589 446.149 370.414 446.362 370.199 446.538C370.032 446.381 369.88 446.208 369.743 446.026C361.474 434.648 357.309 431.803 355.363 428.56C352.901 424.493 345.787 420.283 341.501 417.837C338.674 416.215 333.171 410.925 328.824 407.71C319.005 400.457 318.762 395.877 304.747 394.085C302.619 393.801 299.366 394.682 298.849 394.284C298.333 393.886 298.849 393.203 301.312 388.766C303.376 384.76 305.852 380.948 308.699 377.388C321.285 360.776 318.731 361.629 323.018 354.774C330.557 342.599 332.533 344.078 344.602 332.018C361.14 315.463 361.96 315.093 363.055 312.476C363.541 311.253 362.386 310.684 361.778 311.281C323.96 348.658 327.578 341.149 319.826 354.688C302.649 384.727 312.681 363.819 298.029 388.538C296.478 391.127 279.788 319.758 281.4 314.979C281.856 313.614 283.558 315.804 296.6 310.627C316.329 302.748 305.933 309.148 322.44 297.77C330.8 292.081 334.6 285.737 343.082 290.488C354.026 296.632 357.978 294.1 368.253 296.945C373.695 298.452 373.148 300.131 395.978 308.749C402.666 311.281 403.609 316.799 404.399 322.232C408.321 350.877 405.585 354.347 370.533 446.026L370.716 445.912Z" fill="#000001"/>
<path d="M362.994 40.7679C363.541 40.7679 363.936 40.7679 363.754 41.6497C362.599 46.2862 369.317 50.1832 367.98 52.4304C366.161 55.6824 364.881 59.1733 364.18 62.7844C364.028 63.6378 364.848 63.1826 365.183 63.4386C366.46 64.4627 367.068 59.115 370.351 53.3406C372.57 49.5005 366.125 45.6604 366.277 42.3608C366.46 38.1224 368.223 40.5403 372.357 41.7634C374.668 42.4461 376.431 41.7634 377.069 43.1857C377.482 43.9457 378.171 44.5418 379.015 44.8654C379.859 45.1892 380.796 45.2188 381.66 44.9493C384.457 44.2666 383.727 46.2862 387.01 46.9404C390.293 47.5947 390.263 47.4525 390.263 48.5903C390.263 48.9885 390.263 49.4152 389.746 49.529C388.183 50.0279 386.694 50.7064 385.308 51.5486C383.575 52.3166 384.335 51.0081 381.447 52.7717C377.1 55.4171 377.829 53.7388 376.005 55.0758C372.965 57.3798 366.308 63.9507 368.436 65.5151C370.564 67.0796 370.807 62.9835 375.124 59.2857C379.441 55.5878 378.772 57.3798 380.231 56.4411C383.271 54.6775 383.697 54.4215 384.153 54.3931C386.767 54.194 388.773 52.1459 390.75 51.9752C393.425 51.7477 392.726 49.5574 393.303 49.7281C393.881 49.8987 393.881 50.4392 394.094 50.9228C396.009 55.3887 401.967 44.864 397.377 43.4701C392.786 42.0763 391.57 45.0915 390.841 44.9208C383.788 43.4417 388.165 44.2951 384.092 42.3323C382.207 41.4221 380.717 43.5555 379.197 41.5359C376.796 38.2931 378.529 41.5359 367.25 37.326C366.46 37.0415 366.034 36.0175 365.426 35.3348C364.818 34.6521 363.876 34.6521 362.751 34.3677C359.559 33.6566 357.674 39.8292 362.994 40.7679ZM396.07 45.8595C397.012 46.1155 396.313 48.192 395.462 47.7654C392.239 46.2293 394.945 45.5182 396.07 45.8595ZM362.629 36.5864C362.994 36.5864 363.632 37.582 363.967 38.0656C362.295 39.3456 361.504 36.9846 362.599 36.5864H362.629Z" fill="#000001"/>
<path d="M384.214 347.207C374.121 352.043 360.653 360.832 329.493 362.625C328.308 362.625 327.122 363.137 327.274 364.274C327.426 365.412 353.266 366.692 385.034 349.54C389.23 347.236 386.98 345.899 384.214 347.207Z" fill="#000001"/>
<path d="M334.235 354.973C350.499 350.222 371.415 335.061 370.077 333.411C367.432 330.254 360.744 342.94 333.354 352.953C332.381 353.294 332.806 354.688 334.235 354.973Z" fill="#000001"/>
<path d="M322.774 161.375C323.291 161.887 335.299 172.071 336.606 168.913C337.093 167.719 336.302 167.377 332.107 164.647C310.249 150.765 300.977 122.661 290.58 116.631C289.881 116.233 289.304 117.797 289.577 118.281C291.966 120.745 294.132 123.39 296.052 126.189C308.79 145.247 305.629 143.995 322.774 161.375Z" fill="#000001"/>
<path d="M324.325 305.649C317.424 309.489 317.272 311.338 313.685 312.789C311.314 313.756 292.405 320.668 294.016 323.257C294.898 324.594 294.746 323.513 315.296 314.951C318.22 313.249 321.004 311.348 323.626 309.262C334.023 302.236 335.482 302.349 334.965 300.728C334.053 298.14 328.399 303.402 324.325 305.649Z" fill="#000001"/>
<path d="M316.421 212.036C322.684 212.036 324.781 205.322 322.775 201.71C322.519 201.316 322.367 200.869 322.334 200.408C322.304 199.947 322.392 199.486 322.593 199.065C323.869 196.22 330.223 190.844 330.831 198.467C330.831 199.377 332.412 199.662 333.081 198.467C333.504 197.672 333.679 196.783 333.587 195.9C333.496 195.018 333.141 194.176 332.566 193.472C331.991 192.767 331.216 192.227 330.329 191.914C329.443 191.6 328.48 191.525 327.548 191.697C322.623 192.693 317.242 198.552 319.857 203.303C320.738 204.924 319.857 208.281 318.032 208.679C314.415 209.419 314.172 207.825 313.29 209.361C312.408 210.897 314.354 212.036 316.421 212.036Z" fill="#000001"/>
<path d="M295.415 82.4965C295.597 80.5622 294.989 75.1292 300.127 73.8207C304.261 72.7398 306.541 73.1096 308.396 70.0944C309.976 67.5343 308.396 66.7379 309.885 64.0925C314.871 55.5589 312.317 56.8674 319.005 54.1367C336.881 46.7125 322.045 37.2402 320.464 42.019C319.644 44.3231 321.224 45.6316 322.288 43.4128C322.836 42.2466 328.642 46.4565 321.802 49.9552C315.479 53.1695 312.408 53.1411 310.706 57.2088C309.004 61.2764 306.268 63.8649 306.359 67.6197C306.359 70.2935 303.714 70.2082 300.643 70.7771C298.214 71.3996 296.086 72.7853 294.619 74.7018C293.152 76.6183 292.435 78.9487 292.587 81.3018C292.648 86.4219 295.019 86.9339 295.415 82.4965Z" fill="#000001"/>
<path d="M257.11 105.452C255.144 105.409 253.189 105.757 251.377 106.473C249.563 107.189 247.932 108.256 246.592 109.605C244.798 111.397 246.592 113.018 248.416 111.568C249.776 110.254 251.463 109.28 253.328 108.734C255.19 108.187 257.171 108.086 259.086 108.439C281.826 111.283 283.407 137.538 306.663 163.48C309.429 166.524 311.588 165.414 310.524 163.622C306.232 158.663 302.262 153.468 298.637 148.063C279.454 115.863 277.6 108.297 257.11 105.452Z" fill="#000001"/>
<path d="M258.933 131.849C257.869 132.901 257.079 135.177 258.66 134.693C260.849 133.868 262.916 131.451 268.418 131.508C276.049 131.508 278.815 141.975 279.332 136.656C278.694 128.208 267.628 123.116 258.933 131.849Z" fill="#000001"/>
<path d="M264.193 165.329C265.835 165.329 265.926 164.305 266.351 162.74C265.865 159.725 263.311 159.896 262.703 161.631C262.095 163.366 262.399 165.244 264.193 165.329Z" fill="#000001"/>
<path d="M239.568 109.235C239.568 111.141 239.568 114.611 241.666 114.298C244.432 113.9 239.872 109.064 244.098 102.92C244.567 102.069 245.236 101.326 246.049 100.745C246.864 100.164 247.807 99.761 248.81 99.5638C249.162 99.4296 249.469 99.2123 249.704 98.9328C249.937 98.6536 250.092 98.3222 250.148 97.9709C249.996 94.2161 239.447 98.3407 239.568 109.235Z" fill="#000001"/>
<path d="M219.413 3.87419C220.325 4.10175 221.632 2.87861 223.092 2.65104C225.28 2.3097 231.087 2.13903 232.212 4.21553C235.829 10.7295 223.578 18.8648 222.088 27.8535C221.146 33.5425 227.53 35.0216 237.289 37.5533C245.709 39.7151 230.023 49.7562 234.826 55.8151C235.617 56.7822 237.866 58.6596 239.69 60.4516C244.281 64.946 238.322 70.9479 241.332 71.5452C244.341 72.1426 246.561 62.7557 241.332 58.0053C235.525 52.5439 234.917 54.4497 241.089 44.3517C242.7 41.7063 243.581 37.0697 240.055 35.6474C236.529 34.2252 237.015 35.2776 228.564 32.2056C215.674 27.569 240.177 13.8015 234.37 3.07772C233.033 0.00564342 230.205 0.346986 226.344 0.00564378C218.562 -0.165027 218.288 3.58973 219.413 3.87419Z" fill="#000001"/>
<path d="M237.138 201.625C237.138 200.601 236.469 197.614 233.915 197.557C230.875 197.557 230.419 201.795 232.608 203.872C233.915 205.152 236.408 205.436 237.138 201.625Z" fill="#000001"/>
<path d="M226.041 160.521C225.798 157.677 223.397 157.677 223.001 158.758C221.086 161.972 225.069 164.987 226.041 160.521Z" fill="#000001"/>
<path d="M173.814 259.539C104.532 281.129 106.933 279.451 108.909 283.035C122.985 310.428 122.498 309.148 125.021 309.404C131.953 307.526 188.497 289.976 188.862 289.805C192.753 288.554 190.504 286.562 180.107 266.821C176.459 259.653 176.58 258.686 173.814 259.539ZM186.947 287.558L125.173 306.645C124.444 306.645 125.447 308.266 111.706 282.836C111.007 281.556 107.328 283.291 150.71 269.694C158.249 267.333 165.423 264.973 173.479 262.498C175.577 261.872 173.905 259.938 182.6 276.72C188.102 287.643 188.345 287.131 186.977 287.558H186.947Z" fill="#000001"/>
<path d="M170.288 285.481C169.892 285.481 130.524 296.859 127.727 298.111C126.359 298.651 125.113 300.358 126.785 300.756C127.332 300.756 171.808 288.61 174.148 286.078C172.932 283.974 171.899 285.424 170.288 285.481Z" fill="#000001"/>
<path d="M133.594 283.007C138.61 282.182 138.428 280.674 141.377 280.816C147.001 280.105 149.129 277.972 154.236 276.777C159.343 275.582 160.802 275.924 164.785 273.933C165.758 273.477 166.426 271.885 164.359 271.486C163.994 271.486 161.654 272.141 158.279 272.937C146.271 275.782 144.599 277.886 141.498 277.83C137.911 277.83 138.063 279.195 132.713 280.304C120.552 282.836 122.528 283.917 119.276 284.059C118.88 284.059 118.242 284.941 118.12 285.282C117.847 286.306 121.16 286.904 122.741 286.079C126.123 284.431 129.804 283.391 133.594 283.007Z" fill="#000001"/>
<path d="M143.869 141.065C148.308 135.547 145.693 136.343 160.316 141.065C160.62 141.197 160.961 141.235 161.29 141.174C161.619 141.112 161.918 140.955 162.145 140.723C162.372 140.492 162.514 140.2 162.552 139.888C162.589 139.576 162.519 139.261 162.353 138.989C160.752 135.739 158.903 132.602 156.82 129.602C155.573 128.123 161.988 121.723 162.109 118.224C162.292 113.075 151.013 121.637 148.551 118.622C146.575 116.204 143.565 113.53 141.589 110.6C140.708 109.264 139.005 108.78 138.732 110.373C136.391 124.908 140.16 121.324 131.496 124.453C126.663 126.217 126.511 126.188 126.237 127.639C125.386 132.219 136.695 132.873 136.725 134.95C136.908 144.308 136.512 143.739 136.725 145.702C136.768 145.965 136.886 146.213 137.067 146.418C137.248 146.624 137.484 146.78 137.752 146.871C138.02 146.961 138.309 146.982 138.588 146.931C138.867 146.881 139.127 146.761 139.34 146.584C141.012 144.866 142.527 143.02 143.869 141.065ZM137.029 131.536C126.632 127.895 126.632 128.692 138.063 124.823C140.556 123.97 139.37 118.878 141.103 114.497C151.956 123.998 142.805 123.202 158.674 119.788C156.333 125.648 151.469 127.326 154.266 130.37C155.83 132.417 157.183 134.598 158.309 136.884C159.069 138.078 155.269 136.884 149.889 135.006C146.849 133.954 147.548 131.821 140.373 141.207C137.576 144.877 141.62 133.129 137.029 131.536Z" fill="#000001"/>
<path d="M85.3495 91.343C86.8087 89.8639 86.8391 89.8639 88.1767 91.343C89.5381 92.858 90.5708 94.6069 91.2168 96.4916C91.764 98.3121 89.6967 97.345 89.0583 97.3734C86.0183 97.3734 87.2647 99.5068 88.0247 99.8481C95.5032 103.233 98.7256 95.1831 98.9384 97.8285C99.2728 101.413 99.2424 105.31 99.4248 110.003C99.4248 112.136 101.279 113.758 102.83 112.449C104.38 111.141 108.515 107.215 114.382 101.868C123.988 93.0782 124.383 93.3342 124.262 91.599C122.863 72.5408 121.222 77.3765 127.91 70.5781C135.996 62.4143 152.23 45.8023 157.489 35.8465C165.606 20.799 168.829 4.9551 161.259 4.15863C151.136 3.10616 133.534 11.3837 124.779 18.5803C118.5 23.6113 112.636 29.0789 107.238 34.9363C88.9975 53.6816 94.1656 50.638 85.9575 51.662C69.4502 53.6532 75.2262 50.3251 54.706 71.2607C52.1828 73.8493 53.9764 75.6129 55.618 75.6129C60.5452 75.1312 65.5029 74.9792 70.4534 75.1577C69.5943 75.9895 68.963 77.0036 68.6136 78.113C68.2643 79.2225 68.207 80.3947 68.4469 81.5294C69.081 83.784 70.3518 85.8372 72.1254 87.4745C73.1286 88.0718 73.8582 87.0194 73.463 85.91C73.2806 85.3411 70.1494 81.0174 71.0614 79.965C71.9734 78.9125 74.2838 79.965 81.0023 84.7438C82.8567 86.0522 79.2999 87.3038 76.2902 91.4568C74.5574 93.9031 77.6278 95.1547 78.4486 95.7236C79.2694 96.2925 80.0295 96.4063 80.8503 95.8658L85.3495 91.343ZM70.4534 110.487C49.1732 141.776 44.4307 174.545 60.8469 215.279C61.1509 215.99 62.1845 219.204 63.2181 218.55C66.5013 216.53 49.1428 190.93 54.858 153.268C60.1173 118.622 84.5591 98.625 85.2583 95.6098C85.6231 94.1307 85.0455 93.5049 83.1607 94.1876C78.5034 99.3217 74.2559 104.769 70.4534 110.487ZM79.9383 80.7614C74.0102 76.58 71.6694 78.4289 72.7942 76.6369C73.3414 75.7551 73.8886 74.7595 74.7702 75.1293C78.9958 75.4706 80.4551 76.9782 85.5623 80.221C86.4439 80.7899 85.7447 81.4157 84.3463 82.6957C83.5255 83.549 83.7079 83.3784 80.0599 80.7614H79.9383ZM79.5735 93.6186C77.3238 92.1679 76.3206 95.1262 103.407 65.6002C104.745 64.1779 106.447 62.7556 107.268 64.6615C107.359 64.7468 79.7255 93.5618 79.5735 93.6186ZM95.8376 96.4632C93.1624 98.5965 95.564 96.4632 90.9431 90.7741C88.8151 88.1572 88.5415 88.1572 88.9367 87.7305C91.3992 85.0282 90.8823 83.7482 96.78 94.5289C97.388 95.2969 96.78 95.7236 95.9288 96.4063L95.8376 96.4632ZM102.89 109.32C101.918 110.259 102.374 110.231 101.31 95.9796C101.31 94.6427 113.47 85.7393 117.391 81.3588C121.313 76.9782 120.431 77.7178 121.739 90.8026C122.377 91.9688 122.134 91.5137 102.982 109.263L102.89 109.32ZM131.254 17.9261C137.392 13.6873 144.289 10.5083 151.622 8.53919C163.144 5.69467 161.867 8.53919 162.414 12.7775C162.119 16.8027 161.176 20.7632 159.617 24.5253C152.291 41.2511 152.929 39.7435 150.923 36.387C141.62 20.8844 128.761 19.3768 131.254 17.9261ZM127.332 20.7706C131.224 17.3287 153.325 38.5773 150.132 42.5596C140.8 54.279 108.332 88.4132 99.7592 93.3342C97.9737 90.0829 95.942 86.9554 93.6792 83.9757C92.9192 82.9233 92.828 83.6344 103.559 72.4554C109.639 65.9699 111.372 65.2304 109.244 62.7841C108.332 61.7316 105.9 60.1956 104.35 61.6747C102.799 63.1539 101.948 64.1495 94.3176 72.3417C87.2951 79.8512 88.7543 78.9978 86.2615 77.2342C76.2294 70.1514 74.4358 75.7266 80.8503 68.0749C95.2359 51.3923 110.73 35.5739 127.241 20.7137L127.332 20.7706ZM72.3382 56.8959C73.5846 55.5306 73.5846 55.7581 88.5111 54.0514C90.852 53.767 84.2247 58.8018 79.391 65.6286C78.2966 67.1078 74.1622 72.2848 72.551 72.4839C72.551 72.4839 57.3508 72.9106 57.3508 72.8252C56.7124 72.3132 64.8293 65.0597 72.3382 56.8959Z" fill="#000001"/>
<path d="M148.065 286.676C154.145 285.026 154.541 284.514 156.699 284.486C157.208 284.517 157.712 284.377 158.119 284.09C158.527 283.803 158.81 283.388 158.918 282.921C158.918 279.65 146.758 284.856 141.012 285.766C135.784 286.591 123.897 289.834 122.164 291.597C120.948 292.849 121.617 293.56 123.259 293.645C129.339 291.711 128.518 291.455 130.707 290.801C143.414 287.558 134.659 290.289 148.065 286.676Z" fill="#000001"/>
<path d="M137.333 196.277C135.448 196.505 129.185 197.785 128.212 198.041C126.419 198.468 120.795 186.833 119.366 191.157C115.87 201.795 120.673 200.061 111.766 200.772C108.118 201.056 108.057 201.966 108.148 203.616C108.148 204.726 108.574 204.953 110.763 206.204C120.643 211.893 116.326 207.769 115.505 218.294C115.505 219.744 116.296 220.427 117.542 220.057C120.369 219.175 124.838 211.524 126.905 212.519C129.896 213.487 132.94 214.304 136.025 214.966C137.758 215.421 138.488 214.567 138.275 213.316C137.941 211.325 135.6 210.471 133.259 206.432C132.742 205.493 132.864 205.92 138.67 199.406C139.673 198.211 140.129 195.964 137.333 196.277ZM130.645 207.655C133.472 212.32 134.627 211.894 129.124 210.756C122.74 209.419 125.628 209.021 119.001 215.307C118.211 216.075 119.153 212.946 119.396 209.988C119.67 206.46 112.374 205.323 111.31 203.474C111.827 203.474 110.915 203.474 115.596 203.047C121.372 202.592 118.636 199.548 121.16 194.713C123.227 196.362 125.355 201.312 127.24 200.942C142.653 197.586 127.3 202.137 130.645 207.655Z" fill="#000001"/>
<path d="M125.964 53.5392C140.648 52.8281 139.614 32.7173 125.508 33.0302C109.974 34.7938 112.801 54.0512 125.964 53.5392ZM124.353 35.8178C125.537 35.6213 126.752 35.6725 127.912 35.9674C129.073 36.2623 130.149 36.7938 131.063 37.5236C131.978 38.2537 132.709 39.1639 133.203 40.1894C133.698 41.2146 133.943 42.3297 133.922 43.4544C133.902 44.5792 133.616 45.6857 133.084 46.6946C132.553 47.7037 131.789 48.59 130.848 49.2902C129.907 49.9904 128.812 50.487 127.642 50.7447C126.472 51.0024 125.255 51.0144 124.079 50.78C122.231 50.4116 120.577 49.4535 119.4 48.0694C118.224 46.6856 117.598 44.9618 117.63 43.1937C117.663 41.4253 118.351 39.7227 119.578 38.3772C120.804 37.0317 122.492 36.127 124.353 35.8178Z" fill="#000001"/>
<path d="M92.4323 242.757C90.4259 243.098 90.0307 245.601 92.6147 245.601C105.808 245.402 106.477 223.044 93.7699 223.215C92.3885 223.168 91.009 223.35 89.6963 223.755C89.5139 222.134 92.7363 215.051 89.3315 209.533C85.5618 203.446 74.6481 203.844 71.0913 212.235C69.7261 215.865 69.1414 219.712 69.3709 223.554C69.6004 227.396 70.6398 231.156 72.4289 234.622C73.1281 235.902 74.8913 235.162 74.4657 233.455C65.3456 209.192 83.1906 202.934 87.2034 211.695C90.5475 219.005 83.3122 227.084 86.4434 228.762C88.6626 229.928 89.7874 225.348 94.0739 225.917C99.6371 226.828 100.64 232.488 99.7283 236.271C98.1779 242.501 93.9827 242.472 92.4323 242.757Z" fill="#000001"/>
<path d="M60.9685 221.138C43.9747 195.025 39.6883 149.371 60.6949 112.165C65.5268 104.237 70.941 96.6337 76.8982 89.4084C79.7255 86.8199 76.8982 85.4546 75.3478 87.1044C57.7461 106.589 43.9443 134.807 43.9443 160.237C43.9443 197.5 53.9156 215.648 58.9013 221.223C61.3333 223.841 62.5797 223.613 60.9685 221.138Z" fill="#000001"/>
<path d="M46.8626 243.61C31.6624 248.076 33.3953 231.578 48.4434 237.295C48.6291 237.4 48.8371 237.466 49.0527 237.487C49.2685 237.511 49.4866 237.487 49.6923 237.423C49.8978 237.359 50.0858 237.253 50.2428 237.113C50.4002 236.973 50.5225 236.802 50.6018 236.613C51.4226 234.877 49.8114 234.451 48.261 233.967C39.9617 231.379 49.2034 216.558 60.6947 234.65C61.6371 236.129 63.2483 235.105 62.8835 233.967C60.4515 225.86 50.7234 219.744 44.6434 224.722C43.3506 225.744 42.4857 227.162 42.202 228.724C41.9182 230.286 42.2339 231.891 43.093 233.256C35.9185 233.427 33.9729 236.101 33.1521 239.599C31.5104 247.848 45.7074 248.816 49.325 245.573C50.7234 244.264 49.5682 242.814 46.8626 243.61Z" fill="#000001"/>
<path d="M26.2205 193.063C25.7645 192.21 25.4605 190.56 23.3629 191.754C14.8204 196.619 16.5532 195.851 14.2428 193.546C10.7771 190.161 9.89554 188.853 8.16272 189.251C7.40272 189.45 7.58512 190.901 7.76752 191.669C9.86514 200.772 10.5339 198.354 6.58191 199.719C5.6699 200.06 4.87949 200.459 1.17066 201.909C0.821309 202.059 0.525415 202.3 0.317933 202.602C0.110451 202.905 0 203.257 0 203.616C0 203.976 0.110451 204.328 0.317933 204.63C0.525415 204.933 0.821309 205.173 1.17066 205.323C12.4796 209.277 9.92594 208.537 10.6859 213.003C11.5676 218.123 11.7196 219.403 12.8748 219.517C13.3457 219.576 13.8245 219.489 14.2367 219.268C14.6489 219.046 14.9716 218.704 15.1548 218.294C19.8972 207.513 16.7964 210.358 21.2348 211.097C28.8653 212.377 29.2605 213.088 30.3549 211.837C31.4493 210.585 29.2301 208.736 28.1357 207.57C20.9612 199.833 23.0893 204.953 26.2205 193.063ZM23.9709 208.622C22.3465 208.509 20.769 208.062 19.35 207.314C15.5196 206.148 15.5196 213.316 13.9996 214.539C13.6315 213.036 13.4278 211.501 13.3916 209.959C13.3916 206.83 11.5676 206.603 6.03471 203.758C4.8187 203.104 7.58512 202.848 10.7163 201.369C13.8476 199.89 11.3548 197.045 11.294 195.054C11.294 193.859 13.422 196.732 14.7596 198.297C16.8268 200.715 17.07 196.875 22.8765 195.253C21.9037 199.947 18.5292 201.17 21.782 204.413C26.5245 209.163 25.2477 208.736 23.9709 208.622Z" fill="#000001"/>
</svg>
