<svg width="1649" height="917" viewBox="0 0 1649 917" fill="none" xmlns="http://www.w3.org/2000/svg">
<g clip-path="url(#clip0_375_4109)">
<rect width="1649" height="917" fill="#F7F7F7"/>
<path fill-rule="evenodd" clip-rule="evenodd" d="M301.882 284.4C279.105 308.069 242.171 310.133 209.409 307.506C136.248 301.647 64.3982 280.09 0 244.843V0H249.295C290.542 51.8862 309.569 118.065 319.6 183.631C324.895 218.595 326.395 258.855 301.882 284.4" fill="#7BD5E1"/>
<path fill-rule="evenodd" clip-rule="evenodd" d="M1120.15 940.954C1114.13 919.87 1116.83 896.524 1127.52 877.293C1138.21 858.062 1156.77 843.167 1178.13 836.676C1191.64 832.568 1206.23 831.668 1218.96 825.616C1240.31 815.465 1252.17 793.2 1268.35 776.193C1303.01 739.747 1362.39 728.474 1408.46 749.589C1441.55 764.756 1466.06 793.71 1497.97 811.149C1511.91 818.771 1527.16 824.099 1542.88 826.841C1553.37 828.67 1564.18 829.389 1574.13 833.126C1589.2 838.79 1600.89 850.928 1609.55 864.273C1623.15 885.253 1630.4 911.812 1621.97 935.253C1621.03 937.878 1616.71 940.287 1616.26 937.543L1120.15 940.954Z" fill="#7BD5E1"/>
<path fill-rule="evenodd" clip-rule="evenodd" d="M1433.94 787.606L1489.39 798.55L1465.59 833.216L1433.94 787.606Z" fill="#FF6B48"/>
<path fill-rule="evenodd" clip-rule="evenodd" d="M1217.87 784.054L1236.53 750.433L1255.08 772.868L1217.87 784.054Z" fill="#FFC561"/>
</g>
<defs>
<clipPath id="clip0_375_4109">
<rect width="1649" height="917" fill="white"/>
</clipPath>
</defs>
</svg>
